<svg xmlns="http://www.w3.org/2000/svg" xmlns:xlink="http://www.w3.org/1999/xlink" width="2000" zoomAndPan="magnify" viewBox="0 0 1500 1499.999933" height="2000" preserveAspectRatio="xMidYMid meet" version="1.0"><defs><clipPath id="83e42c4c5e"><path d="M 191.601562 150 L 1308.203125 150 L 1308.203125 1350 L 191.601562 1350 Z M 191.601562 150 " clip-rule="nonzero"/></clipPath></defs><g clip-path="url(#83e42c4c5e)"><path fill="#9eff1f" d="M 1251.148438 496.433594 L 1001.386719 467.460938 C 993.125 466.316406 985.1875 469.050781 979.007812 474.527344 C 972.902344 479.984375 969.441406 487.757812 969.441406 495.933594 L 969.441406 622.851562 C 969.441406 638.011719 981.289062 650.582031 996.421875 651.460938 L 1251.148438 666.257812 L 1251.148438 1169.769531 L 754.027344 1285.171875 L 754.027344 1061.058594 L 1079.40625 1023.257812 C 1102.046875 1020.5 1105.003906 1002.375 1104.765625 994.785156 L 1104.765625 872.378906 C 1105.277344 860.136719 1103.128906 842.597656 1074.417969 843.769531 L 754.027344 862.390625 L 754.027344 214.628906 L 1251.148438 330.027344 Z M 725.472656 1006.648438 L 514.023438 981.480469 L 561.804688 977.792969 L 795.109375 998.554688 Z M 696.679688 1284.96875 L 248.96875 1178.394531 L 248.96875 1007.65625 L 696.679688 1060.976562 Z M 248.96875 835.675781 L 248.96875 321.351562 L 696.679688 214.808594 L 696.679688 862.335938 Z M 723.679688 921.386719 C 727.871094 921.386719 1047.4375 902.765625 1047.4375 902.765625 L 1047.4375 963.457031 L 592.976562 923.015625 L 592.976562 913.59375 Z M 1308.480469 307.234375 C 1308.480469 293.921875 1299.296875 282.3125 1286.324219 279.328125 L 731.855469 150.632812 C 729.28125 150.089844 724.109375 149.523438 718.84375 150.640625 C 718.707031 150.640625 213.609375 270.8125 213.609375 270.8125 C 200.757812 273.890625 191.621094 285.425781 191.621094 298.699219 L 191.621094 862.691406 C 191.621094 877.871094 203.4375 890.40625 218.617188 891.3125 L 535.648438 910.191406 L 535.648438 922.660156 L 218.113281 946.800781 C 211.871094 947.441406 193.203125 951.597656 191.621094 974.769531 C 191.574219 975.394531 191.621094 1201.042969 191.621094 1201.042969 C 191.621094 1214.308594 200.757812 1225.84375 213.621094 1228.929688 L 718.707031 1349.148438 C 723.851562 1350.769531 729.675781 1349.671875 731.855469 1349.167969 L 1286.324219 1220.433594 C 1299.296875 1217.449219 1308.480469 1205.859375 1308.480469 1192.539062 L 1308.480469 639.203125 C 1308.480469 624.023438 1296.613281 611.453125 1281.492188 610.582031 L 1026.753906 595.808594 L 1026.753906 576.316406 L 1281.9375 557.21875 C 1303.519531 555.53125 1308.480469 536.863281 1308.480469 529.230469 C 1308.480469 528.632812 1308.480469 307.234375 1308.480469 307.234375 " fill-opacity="1" fill-rule="nonzero"/></g></svg>